<svg width="100" height="100" viewBox="0 0 100 100" fill="none" xmlns="http://www.w3.org/2000/svg">
<path d="M22.9165 81.25C22.9165 81.25 37.4998 75 41.6665 70.8333C45.8332 66.6667 33.3332 66.6667 33.3332 45.8333C33.3332 25 49.9998 25 49.9998 25C49.9998 25 66.6665 25 66.6665 45.8333C66.6665 66.6667 54.1665 66.6667 58.3332 70.8333C62.4998 75 77.0832 81.25 77.0832 81.25" stroke="#4A6FFE" stroke-width="1.5" stroke-linecap="round"/>
<path fill-rule="evenodd" clip-rule="evenodd" d="M49.9999 91.6667C73.0118 91.6667 91.6666 73.0119 91.6666 50C91.6666 26.9882 73.0118 8.33337 49.9999 8.33337C26.9881 8.33337 8.33325 26.9882 8.33325 50C8.33325 73.0119 26.9881 91.6667 49.9999 91.6667Z" stroke="#4A6FFE" stroke-width="1.5"/>
</svg>
